PathFileType	4	(X/Y/Z)	C:/Users/beibeiliu/ov580/test_trc/capture2\sequence.26_training_dense_right.trc
DataRate	CameraRate	NumFrames	NumMarkers	Units	OrigDataRate	OrigDataStartFrame	OrigNumFrames
120	120	16	19	mm	120	336	383
Frame#	Time	ThumbCMC			ThumbMCP			ThumbIP			ThumbTip			IndexMCP			IndexPIP			IndexTip			MiddleMCP			MiddlePIP			MiddleTip			RingMCP			RingPIP			RingTip			PinkyMCP			PinkyPIP			PinkyTip			BackHand1			BackHand2			BackHand3	
		X0	Y0	Z0	X1	Y1	Z1	X2	Y2	Z2	X3	Y3	Z3	X4	Y4	Z4	X5	Y5	Z5	X6	Y6	Z6	X7	Y7	Z7	X8	Y8	Z8	X9	Y9	Z9	X10	Y10	Z10	X11	Y11	Z11	X12	Y12	Z12	X13	Y13	Z13	X14	Y14	Z14	X15	Y15	Z15	X16	Y16	Z16	X17	Y17	Z17	X18	Y18	Z18	
335	2.79167	144.15	-17.0241	31.9142	159.038	-30.6694	6.13727	170.782	-29.7114	-20.8681	186.538	-18.9181	-32.2576	147.896	7.98263	-37.6668	155.928	6.90506	-58.9334	161.093	1.14037	-86.1372	167.909	21.1134	-36.99	171.911	15.2023	-64.2795	179.234	10.7721	-93.207	191.545	10.183	-30.1104	205.047	-17.6032	-29.034	198.087	-24.6353	6.0123	205.986	15.278	-13.5335	214.084	-13.7034	-6.21194	197.74	-18.0804	20.2088	173	38.694	20.1972	169.088	38.7296	50.2287	143.704	21.029	31.2118	
336	2.8	149.052	-8.68426	30.0705	158.129	-28.5559	3.39724	175.599	-20.0321	-19.9842	192.604	-10.2909	-31.7401	157.442	18.0351	-33.4136	160.721	14.6445	-60.2986	174.882	15.231	-85.8436	173.321	27.9298	-36.2777	179.438	24.7222	-61.094	191.006	22.334	-93.5406	198.386	17.261	-28.7473	213.1	-9.43402	-29.2162	201.927	-20.803	0.941472	212.43	17.32	-12.3299	215.928	-11.4496	-4.40332	197.631	-12.3371	17.9981	180.231	42.6391	18.7833	174.513	41.19	47.7353	148.968	27.8132	29.8664	
337	2.80833	146.433	-7.40777	28.9552	160.012	-20.6325	-1.95428	176.258	-15.7094	-23.0945	197.899	-2.54913	-34.144	158.769	25.4113	-39.1371	169.449	26.2315	-61.8491	177.305	25.245	-83.3445	180.644	37.0488	-38.8118	183.585	33.6991	-62.0189	195.289	33.0068	-87.0228	206.142	25.4221	-25.8882	217.387	-3.20204	-28.8182	202.273	-17.3118	0.776366	216.002	22.9917	-10.2323	215.961	-7.95241	-4.60237	197.083	-9.40423	21.2624	184.145	48.1766	23.7183	174.486	40.8582	50.7853	152.21	30.5594	27.1325	
338	2.81667	149.678	-2.17989	29.7265	160.014	-15.7641	-4.4823	178.459	-11.2023	-26.7603	199.102	2.57845	-33.42	165.366	32.956	-33.8754	169.984	32.7748	-63.5352	184.379	35.8774	-84.8714	184.098	43.4347	-38.692	191.112	43.0122	-63.811	196.842	40.5037	-89.1157	209.262	29.7855	-26.8198	216.279	-0.56117	-29.4666	204.806	-14.213	-1.24663	219.49	23.8777	-9.60692	218.807	-5.22504	-2.56396	196.853	-6.55439	19.0341	183.761	49.6912	23.9379	176.493	43.7978	49.8008	152.847	36.2788	28.634	
339	2.825	147.918	2.71845	23.6348	158.709	-12.6747	-0.294188	177.185	-5.49763	-24.9357	200.944	6.03845	-35.0139	167.882	39.7014	-37.2986	171.278	39.1928	-58.7432	183.636	43.1852	-83.6872	186.364	49.067	-37.2404	193.815	48.1575	-57.5995	201.959	49.4106	-89.9709	210.736	32.7342	-26.44	218.572	3.28356	-30.4027	199.827	-12.4496	-2.79028	221.136	26.8297	-7.30679	220.282	-2.58217	-5.90515	198.912	-4.56623	18.1128	188.988	52.5972	24.6626	177.34	45.2961	55.1794	153.121	40.3108	28.9158	
340	2.83333	148.298	8.32883	24.3018	155.155	-8.52581	-6.86844	172.001	-6.66247	-29.7863	197.784	3.69825	-35.5736	166.684	44.7568	-34.1863	179.194	47.7441	-60.5704	188.279	49.9039	-80.2083	190.379	52.6774	-37.6691	195.8	52.4399	-60.714	205.924	54.7445	-85.0494	211.997	34.9781	-25.6135	216.534	3.26164	-31.8962	200.883	-11.7509	-8.86934	221.708	25.9914	-8.32009	218.545	-2.80175	-6.20802	194.721	-2.6615	19.1871	191.588	52.7673	24.6297	185.249	47.9385	50.8687	157.852	46.4838	26.2283	
341	2.84167	141.559	13.8016	21.7098	152.414	0.271431	-6.26531	167.803	-2.02471	-30.0166	195.23	5.79184	-36.7526	171.047	49.4621	-38.063	179.933	49.7288	-62.9013	190.373	51.6592	-81.2815	188.234	52.8844	-38.2934	195.983	52.5536	-60.0663	210.879	53.7187	-87.1817	212.271	33.8336	-25.2883	213.703	2.78772	-32.6379	197.829	-12.5875	-9.11012	223.577	21.1257	-11.305	213.491	-3.80185	-7.99716	190.441	-1.17988	13.8382	192.578	54.5373	25.5802	181.701	50.4493	52.1452	161.655	48.9773	27.2692	
342	2.85	139.155	21.7098	20.377	146.755	6.91878	-5.75271	164.666	5.50893	-28.5387	187.777	8.05385	-39.7534	173.131	51.0453	-34.7249	180.663	49.9705	-59.0638	192.392	49.3747	-83.3212	191.416	53.9298	-39.8092	200.2	49.9656	-58.7796	208.289	47.8414	-85.8457	210.705	30.2223	-30.2784	208.809	2.08839	-35.4351	187.314	-11.8187	-10.7372	222.819	19.6052	-12.2739	204.743	-5.53223	-10.6244	186.246	-1.56144	15.4441	199.798	55.3433	22.3475	187.568	48.487	52.8859	164.487	53.8588	31.0795	
343	2.85833	140.056	28.2911	24.9767	141.512	15.8747	-4.8915	153.297	12.8626	-30.235	175.126	11.7543	-45.214	172.985	55.1328	-38.5171	178.674	50.0085	-61.0565	192.292	44.3505	-85.0303	195.317	52.6668	-39.5138	203.397	44.4348	-63.6295	209.099	37.8396	-90.8456	207.613	29.7804	-28.459	202.278	2.62966	-37.5694	177.789	-10.9834	-12.6858	217.786	17.7122	-13.2547	202.235	-7.91793	-13.3149	179.48	-2.65226	13.3056	202.775	50.8966	26.3961	191.439	46.2639	55.713	164.387	55.1869	31.901	
344	2.86667	138.436	36.1471	24.3039	135.443	26.2069	-7.10946	145.994	23.5642	-27.9765	160.942	21.6424	-46.417	176.976	54.5216	-37.8615	178.261	47.9506	-61.4117	184.816	38.3831	-83.8112	197.43	48.8137	-33.2864	200.874	39.26	-62.999	201.494	26.55	-89.3808	205.967	29.103	-28.2862	196.135	3.45023	-39.1842	175.116	-11.5805	-16.3959	215.796	17.6283	-13.221	195.615	-9.40591	-15.1006	174.764	-5.7597	9.12275	204.825	48.1727	22.4345	194.068	43.1861	56.0742	170.839	57.639	31.2778	
345	2.875	141.507	38.6865	30.187	131.552	35.4057	0.153275	135.841	35.5511	-28.0142	150.618	33.9757	-50.1366	172.401	56.3059	-33.3764	178.036	42.7008	-62.2777	178.512	27.9398	-82.2944	194.178	48.3459	-34.3309	197.177	34.5695	-59.6202	190.137	11.335	-84.8938	206.469	23.9918	-29.2506	186.555	-0.224614	-39.5578	166.413	-11.0957	-20.3076	213.049	9.54797	-15.3595	189.282	-9.35236	-17.378	169.996	-4.72503	5.65475	205.645	45.1706	24.9833	196.732	39.3585	55.1645	170.502	58.8805	31.1639	
346	2.88333	142.164	44.2536	31.5385	133.723	43.4256	3.5185	138.627	46.2622	-26.5532	149.748	42.7362	-45.8019	177.537	51.1894	-34.1202	174.616	35.7088	-59.2555	165.415	18.0642	-76.6742	195.146	39.8135	-36.579	188.245	24.5909	-60.3897	169.721	0.481989	-72.9504	201.528	18.7213	-28.2165	178.374	-3.90785	-37.7208	157.96	-11.1316	-16.9592	204.77	7.02465	-13.5343	179.511	-11.2806	-17.8283	163.049	-3.34677	4.14417	207.992	36.6882	27.7402	196.096	34.5801	58.6445	177.904	53.3214	34.3807	
347	2.89167	142.458	52.2691	32.4291	135.201	52.245	2.93201	142.562	51.5167	-25.0328	147.496	50.2878	-46.9284	180.164	47.2004	-31.8277	165.671	34.4732	-59.9786	152.169	13.6535	-67.0318	192.207	32.4631	-36.0319	175.224	14.4973	-57.4273	151.502	-8.16252	-56.9633	195.035	11.4327	-28.401	171.759	-4.34648	-37.2569	146.021	-7.02146	-11.878	199.775	-1.95588	-13.3452	169.504	-14.3728	-14.6327	156.119	-4.20695	7.20708	204.562	29.9578	27.0469	196.937	28.3424	53.8566	182.978	53.4519	36.8917	
348	2.9	148.721	55.3446	30.288	138.949	58.6254	1.46531	147.124	55.4863	-25.8028	151.624	50.2445	-44.69	181.74	45.0908	-36.1244	167.902	30.234	-55.7432	141.246	12.7205	-59.8946	191.531	25.3531	-33.4996	167.153	10.7263	-53.3789	139.694	-5.23422	-46.3902	190.395	8.47023	-29.8333	161.986	-7.41831	-33.4962	139.13	0.442937	-9.22941	191.871	-6.62401	-16.3127	165.231	-14.0775	-17.5255	151.188	1.93194	10.2533	204.71	25.341	23.8465	193.861	26.5687	54.5583	185.607	50.5141	34.0129	
349	2.90833	152.304	57.6899	32.0524	144.043	61.6845	-0.119653	147.171	59.7644	-24.6439	153.12	54.91	-48.2665	183.394	44.6851	-34.8213	163.063	28.792	-56.9321	136.952	12.9855	-51.5277	187.604	24.8651	-35.9384	164.505	9.9451	-50.4414	131.871	-0.4321	-39.1698	187.633	4.89859	-26.6677	159.676	-3.30536	-33.7467	136.334	0.910559	-7.22025	187.658	-8.2208	-13.7879	158.962	-12.5626	-16.7838	145.711	2.34689	9.0936	204.225	19.9395	23.6518	194.625	18.526	54.7783	186.988	49.9333	33.854	
350	2.91667	155.524	60.1491	29.3265	148.746	62.3927	1.01504	152.41	60.1694	-24.9554	157.244	56.4914	-49.3332	184.229	45.3858	-34.6458	165.336	34.7197	-55.5189	135.975	18.5211	-49.9114	186.908	23.0157	-34.8837	161.356	13.6724	-49.7756	130.237	2.5105	-34.4496	185.11	5.00579	-26.2174	151.695	-3.82251	-31.7546	134.667	8.94954	-7.45897	181.693	-10.4401	-15.4445	153.652	-13.5689	-14.2907	141.523	6.16237	10.4792	204.33	14.2479	26.2461	193.278	15.808	58.5176	191.586	45.5288	36.1967	
